                       =!DK GROUP HD BLURAY RELEAESEES!=

===================================================================================

             RIO(2011)1080p BDRip In[Hindi-Eng]6CH-DTS-AC3 By !!!dip

===================================================================================

Storyline:

In Rio de Janeiro, the macaw baby Blu is captured by dealers and smuggled to the United States of America. While driving through Moose Lake, Minnesotta, the truck that is transporting Blu has a minor accident that drops the box where he is trapped on the road. The girl Linda finds the bird and raises him with love. Fifteen years later, Blu is a domesticated and intelligent bird that does not fly and lives a comfortable life with the bookshop owner Linda. Out of the blue, the clumsy Brazilian ornithologist Tulio visits Linda and explains that Blu is the last male of his species alive and he has a female called Jewel in Rio de Janeiro. He invites Linda to travel with Blu to Rio de Janeiro to mate with Jewel and save their species. Linda travels with Blu and Tulio to Rio de Janeiro and they leave Blue and Jewel in a large cage in the institute where Tulio works. While they are having dinner... Written by Claudio Carvalho, Rio de Janeiro, Brazil 

Cast:

Karen Disher ... Mother Bird (voice)
Jason Fricchione ... Truck Driver (voice)
Sofia Scarpa Saldanha ... Young Linda (voice)
Leslie Mann ... Linda (voice)
Kelly Keaton ... Bookstore Customer / Lady Tourist (voice)
Jesse Eisenberg ... Blu (voice)
Wanda Sykes ... Chloe (The Goose) (voice)
Jane Lynch ... Alice (The Other Goose) (voice)
Rodrigo Santoro ... Tulio / Soccer Announcer (voice)
Gracinha Leporace ... Dr. Barbosa (voice)
Jamie Foxx ... Nico (voice)
Will i Am ... Pedro (voice) (as will.i.am)
Phil Miler ... Aviary Intern / Waiter (voice)
Anne Hathaway ... Jewel (voice)
Bernardo de Paula ... Sylvio / Kipo (voice)


Genre: Animation | Adventure | Comedy
Language: English-Hindi
Subtitles: English
Source: Rio 3D SBS 1080p
Encoder: Deep Shikha


Directors :Carlos Saldanha
Writers :Carlos Saldanha (story), Earl Richey Jones (story)
Stars: Jesse Eisenberg, Anne Hathaway and George Lopez
Format : Color, Dubbed,Widescreen
Language :[Hindi 2CH - Eng 6CH]
Release Date : 8 April 2011 (India)
Run Time : 1h:32m:01s



Video

ID                               : 1
Format                           : AVC
Format/Info                      : Advanced Video Codec
Format profile                   : High@L4.1
Format settings, CABAC           : Yes
Format settings, ReFrames        : 5 frames
Format settings, GOP             : M=6, N=25
Muxing mode                      : Header stripping
Codec ID                         : V_MPEG4/ISO/AVC
Duration                         : 1h 32mn
Bit rate                         : 4 504 Kbps
Width                            : 1 920 pixels
Height                           : 800 pixels
Display aspect ratio             : 2.40:1
Frame rate                       : 25.000 fps
Original frame rate              : 23.976 fps
Color space                      : YUV
Chroma subsampling               : 4:2:0
Bit depth                        : 8 bits
Scan type                        : Progressive
Bits/(Pixel*Frame)               : 0.117
Stream size                      : 2.96 GiB (83%)
Title                            : !!!dip
Team                             : DK Group HD Bluray Releases


Audio Specifications:


Audio #1
ID                               : 2
Format                           : AC-3
Format/Info                      : Audio Coding 3
Mode extension                   : CM (complete main)
Muxing mode                      : Header stripping
Codec ID                         : A_AC3
Duration                         : 1h 32mn
Bit rate mode                    : Constant
Bit rate                         : 448 Kbps
Channel(s)                       : 6 channels
Channel positions                : Front: L C R, Side: L R, LFE
Sampling rate                    : 48.0 KHz
Bit depth                        : 16 bits
Compression mode                 : Lossy
Stream size                      : 295 MiB (8%)
Title                            : !!!dip
Language                         : English

Audio #2
ID                               : 3
Format                           : AC-3
Format/Info                      : Audio Coding 3
Mode extension                   : CM (complete main)
Muxing mode                      : Header stripping
Codec ID                         : A_AC3
Duration                         : 1h 32mn
Bit rate mode                    : Constant
Bit rate                         : 384 Kbps
Channel(s)                       : 6 channels
Channel positions                : Front: L C R, Side: L R, LFE
Sampling rate                    : 48.0 KHz
Bit depth                        : 16 bits
Compression mode                 : Lossy
Delay relative to video          : 1s 0ms
Stream size                      : 253 MiB (7%)
Title                            : !!!dip
Language                         : Hindi



SAMPLE IMAGE:
 
http://www.pix2links.com/images/05417022106228300887.jpg
 
http://www.pix2links.com/images/41941177567284411957.jpg
 
http://www.pix2links.com/images/67985586652080783443.jpg
 
http://www.pix2links.com/images/75185890259840602794.jpg
 
http://www.pix2links.com/images/45152601606367468990.jpg


VIDEO SAMPLE IS INCLUDED:
